<svg width="34" height="20" viewBox="0 0 34 20" fill="none" xmlns="http://www.w3.org/2000/svg">
<path d="M31.8682 15.6845C30.9033 14.5274 29.7678 13.5399 28.6934 12.4913C27.7242 11.5461 27.6631 10.9978 28.4422 9.90694C29.2926 8.71632 30.2071 7.57136 31.0652 6.38611C31.8662 5.27842 32.685 4.17375 33.1065 2.84748C33.3738 2.0037 33.1374 1.631 32.2719 1.48326C32.1228 1.45741 31.9686 1.45607 31.8168 1.45607L26.6821 1.45002C26.0497 1.44062 25.7 1.71628 25.4764 2.27668C25.1744 3.03416 24.8631 3.79098 24.5034 4.52194C23.6873 6.17928 22.7758 7.78121 21.4979 9.1377C21.2162 9.43687 20.9045 9.81494 20.4336 9.65915C19.8446 9.44426 19.6709 8.4739 19.6807 8.14585L19.6756 2.2206C19.5614 1.37414 19.3737 0.996739 18.5331 0.832214L13.1992 0.833222C12.4872 0.833222 12.1302 1.10821 11.75 1.55344C11.5307 1.81063 11.4645 1.97751 11.9152 2.06279C12.8005 2.23068 13.2993 2.80349 13.4316 3.69092C13.6438 5.10886 13.6291 6.5325 13.5068 7.95615C13.4709 8.37182 13.3993 8.78649 13.2344 9.17464C12.9765 9.78472 12.5601 9.90896 12.013 9.53357C11.5176 9.19378 11.1697 8.7143 10.8291 8.23282C9.54987 6.42573 8.52924 4.47695 7.69701 2.42911C7.45655 1.8375 7.04178 1.4789 6.41475 1.46916C4.87422 1.44465 3.33336 1.44062 1.79284 1.4705C0.865902 1.48796 0.5895 1.93789 0.966991 2.77797C2.64488 6.50933 4.51252 10.1369 6.95043 13.4415C8.20212 15.1375 9.63921 16.6347 11.4958 17.6957C13.5998 18.8984 15.8648 19.2604 18.2503 19.1489C19.3673 19.0965 19.7028 18.8061 19.7546 17.693C19.7895 16.9315 19.8758 16.1743 20.2516 15.49C20.6204 14.8185 21.1789 14.6906 21.8227 15.1083C22.1448 15.3175 22.4161 15.5837 22.6724 15.8644C23.3011 16.5521 23.9073 17.2605 24.5598 17.925C25.3783 18.7577 26.3479 19.2496 27.567 19.1492L32.2863 19.1502C33.0467 19.1005 33.441 18.1684 33.0044 17.32C32.6977 16.7257 32.2954 16.1965 31.8682 15.6845Z" fill="#F7FFFF"/>
</svg>
