<svg width="218" height="218" viewBox="0 0 218 218" fill="none" xmlns="http://www.w3.org/2000/svg">
<path d="M46.2141 35.1335H110.51C112.275 35.1335 113.704 33.7048 113.704 31.9402C113.704 30.1755 112.275 28.7468 110.51 28.7468H46.2141C44.4511 28.7468 43.0207 30.1755 43.0207 31.9402C43.0207 33.7048 44.4511 35.1335 46.2141 35.1335Z" fill="white"/>
<path d="M46.2141 56.1399H110.51C112.275 56.1399 113.704 54.7112 113.704 52.9465C113.704 51.1835 112.275 49.7532 110.51 49.7532H46.2141C44.4511 49.7532 43.0207 51.1835 43.0207 52.9465C43.0207 54.7112 44.4511 56.1399 46.2141 56.1399Z" fill="white"/>
<path d="M84.2499 114.196C84.2499 112.677 82.2457 111.706 81.0316 111.706C80.0004 111.706 78.906 112.191 78.239 113.467L63.5446 142.43C63.3018 142.854 63.1804 143.34 63.1804 143.766C63.1804 145.223 64.1517 146.134 65.4274 146.134H80.3646V153.966C80.3646 155.363 81.943 156.092 83.5813 156.092C85.1613 156.092 86.7996 155.363 86.7996 153.966V146.134H89.7751C90.9293 146.134 91.9622 144.616 91.9622 143.159C91.9622 141.642 91.2337 140.123 89.7751 140.123H86.7996V131.742C86.7996 130.226 85.1613 129.619 83.5813 129.619C81.943 129.619 80.3646 130.226 80.3646 131.742V140.123H71.4382L83.9472 115.167C84.1285 114.803 84.2499 114.498 84.2499 114.196Z" fill="white"/>
<path d="M122.687 142.916V125.246C122.687 115.41 116.676 111.706 109.025 111.706C101.313 111.706 95.4233 115.41 95.4233 125.246V142.916C95.4233 152.752 101.313 156.456 109.025 156.456C116.676 156.456 122.687 152.752 122.687 142.916ZM101.86 142.916V125.246C101.86 119.902 104.471 117.414 109.025 117.414C113.519 117.414 116.252 119.904 116.252 125.246V142.916C116.252 148.26 113.519 150.748 109.025 150.748C104.471 150.75 101.86 148.26 101.86 142.916Z" fill="white"/>
<path d="M146.976 114.196C146.976 112.677 144.972 111.706 143.758 111.706C142.725 111.706 141.632 112.191 140.965 113.467L126.271 142.43C126.028 142.854 125.906 143.34 125.906 143.766C125.906 145.223 126.878 146.134 128.153 146.134H143.091V153.966C143.091 155.363 144.669 156.092 146.309 156.092C147.887 156.092 149.527 155.363 149.527 153.966V146.134H152.503C153.655 146.134 154.688 144.616 154.688 143.159C154.688 141.642 153.96 140.123 152.503 140.123H149.527V131.742C149.527 130.226 147.887 129.619 146.309 129.619C144.669 129.619 143.091 130.226 143.091 131.742V140.123H134.164L146.673 115.167C146.855 114.803 146.976 114.498 146.976 114.196Z" fill="white"/>
<path d="M194.487 50.6446L144.777 0.934721C144.178 0.335967 143.367 0 142.519 0H37.0315C29.0564 0 22.5666 6.48816 22.5666 14.4649V203.535C22.5666 211.511 29.0564 218 37.0315 218H180.957C188.934 218 195.422 211.511 195.422 203.535V52.9032C195.422 52.0566 195.086 51.245 194.487 50.6446ZM145.712 10.9023L184.519 49.7099H151.036C148.1 49.7099 145.714 47.3215 145.714 44.3859V10.9023H145.712ZM189.035 203.535C189.035 207.989 185.413 211.613 180.957 211.613H37.0315C32.5774 211.613 28.9533 207.989 28.9533 203.535V14.4649C28.9533 10.0108 32.5774 6.38671 37.0315 6.38671H139.325V44.3859C139.325 50.8425 144.579 56.0966 151.036 56.0966H189.035V203.535Z" fill="white"/>
<path d="M171.776 140.035C170.012 140.035 168.583 141.466 168.583 143.229V172.34C168.583 175.305 166.168 177.72 163.202 177.72H54.7879C51.8207 177.72 49.4074 175.305 49.4074 172.34V143.229C49.4074 141.466 47.9771 140.035 46.2141 140.035C44.4511 140.035 43.0207 141.466 43.0207 143.229V172.34C43.0207 178.828 48.2997 184.107 54.7879 184.107H163.202C169.691 184.107 174.97 178.828 174.97 172.34V143.229C174.97 141.466 173.539 140.035 171.776 140.035Z" fill="white"/>
<path d="M43.0207 96.1748V128.371C43.0207 130.134 44.4511 131.565 46.2141 131.565C47.9771 131.565 49.4074 130.134 49.4074 128.371V96.1748C49.4074 93.2076 51.8207 90.7943 54.7879 90.7943H163.202C166.168 90.7943 168.583 93.2076 168.583 96.1748V128.371C168.583 130.134 170.012 131.565 171.776 131.565C173.539 131.565 174.97 130.134 174.97 128.371V96.1748C174.97 89.6866 169.691 84.4076 163.202 84.4076H54.7879C48.2997 84.4076 43.0207 89.6866 43.0207 96.1748Z" fill="white"/>
</svg>
