<svg width="110" height="110" viewBox="0 0 110 110" fill="none" xmlns="http://www.w3.org/2000/svg">
<rect width="110" height="110" rx="10" fill="#ECECEC"/>
<g clip-path="url(#clip0)">
<path d="M74.3828 43.0709H71.1259C71.2205 42.9382 71.3063 42.7987 71.3814 42.6525C71.8123 41.8109 71.8706 40.8196 71.5413 39.9328L70.5543 37.2802C70.2254 36.3943 69.5341 35.682 68.6586 35.3261C67.7821 34.97 66.7894 34.9984 65.9346 35.4043L58.1239 39.1137C57.7378 38.8378 57.2657 38.6749 56.7561 38.6749H53.2441C52.7344 38.6749 52.262 38.8381 51.876 39.114L44.0656 35.404C43.2108 34.9984 42.218 34.97 41.3416 35.3261C40.466 35.682 39.7748 36.3943 39.4458 37.2799L38.4589 39.9331C38.1296 40.8196 38.1879 41.8109 38.6191 42.6525C38.6939 42.7987 38.7799 42.9385 38.8745 43.0709H35.6174C35.2765 43.0709 35 43.3471 35 43.6883V48.1326C35 48.4735 35.2765 48.75 35.6174 48.75C35.9583 48.75 36.2347 48.4735 36.2347 48.1326V44.3054H40.5228C40.5915 44.3295 40.661 44.3518 40.7315 44.3713L45.9144 45.798C44.7626 47.5628 43.7467 49.4192 42.8769 51.3428H36.2347V50.6018C36.2347 50.2609 35.9583 49.9847 35.6174 49.9847C35.2765 49.9847 35 50.2609 35 50.6018V51.9601C35 52.301 35.2765 52.5775 35.6174 52.5775H37.8189V74.4334C37.8189 74.7746 38.0954 75.0507 38.4363 75.0507H71.5639C71.9048 75.0507 72.1812 74.7746 72.1812 74.4334V70.8488C72.1812 70.5079 71.9048 70.2314 71.5639 70.2314C71.2227 70.2314 70.9465 70.5079 70.9465 70.8488V73.8163H58.7037V52.9571C60.4524 56.2692 61.6362 59.8706 62.1809 63.5917C62.2169 63.8379 62.3976 64.0384 62.639 64.1001C62.6896 64.1132 62.7409 64.1193 62.7919 64.1193C62.9826 64.1193 63.1663 64.0308 63.2847 63.8736C64.1722 62.6963 64.9974 61.4359 65.7423 60.12C66.9899 60.9696 68.2011 61.9168 69.3504 62.9422C69.5442 63.115 69.8256 63.1482 70.0542 63.0249C70.2827 62.9019 70.41 62.649 70.3722 62.392C69.8793 59.0299 68.9604 55.7236 67.6579 52.5775H70.9462V68.3793C70.9462 68.7205 71.2227 68.9966 71.5636 68.9966C71.9048 68.9966 72.1809 68.7205 72.1809 68.3793V52.5775H74.3828C74.7237 52.5775 74.9999 52.301 74.9999 51.9601V43.6883C75.0002 43.3471 74.724 43.0709 74.3828 43.0709ZM66.4641 36.5194C67.0149 36.2582 67.6289 36.2405 68.1938 36.47C68.7578 36.6991 69.185 37.1395 69.3971 37.7105L70.3838 40.3628C70.5962 40.9341 70.5598 41.5475 70.2821 42.0898C70.0047 42.6318 69.5283 43.0194 68.9412 43.1808L59.1142 45.8862V42.9193C61.323 41.5667 66.8297 38.7771 68.2002 40.7116C68.397 40.9896 68.7822 41.0558 69.0605 40.8587C69.3388 40.6616 69.4047 40.2761 69.2076 39.9981C68.1499 38.5049 65.9208 38.4322 62.5819 39.7826C61.2065 40.3387 59.9366 41.0174 59.1142 41.4883V41.0327C59.1142 40.7021 59.0455 40.3872 58.9222 40.1013L66.4641 36.5194ZM53.2441 39.9093H56.7561C57.3756 39.9093 57.8794 40.4134 57.8794 41.0327V46.1355C57.8794 46.755 57.3756 47.2589 56.7561 47.2589H53.2441C52.6246 47.2589 52.1207 46.755 52.1207 46.1355V41.0327C52.1207 40.4131 52.6246 39.9093 53.2441 39.9093ZM52.2065 51.3425C52.797 50.3613 53.4397 49.4104 54.1312 48.4936H55.8683C56.5601 49.4104 57.2029 50.3613 57.7931 51.3425H52.2065ZM39.718 42.0898C39.4403 41.5475 39.404 40.9341 39.6161 40.3631L40.6034 37.7102C40.8151 37.1395 41.2424 36.6991 41.8064 36.47C42.3709 36.2405 42.9853 36.2582 43.5358 36.5194L51.0779 40.1019C50.9547 40.3875 50.886 40.7021 50.886 41.033V41.5237C50.0663 41.0519 48.7678 40.353 47.3572 39.7826C44.0186 38.4322 41.7893 38.5049 40.7315 39.9981C40.5344 40.2761 40.6003 40.6616 40.8786 40.8587C41.1569 41.0558 41.5421 40.9899 41.7389 40.7116C43.1223 38.7588 48.7195 41.6195 50.886 42.9568V45.8862L41.0593 43.1811C40.4718 43.0194 39.9954 42.6318 39.718 42.0898ZM51.1631 47.243C51.4704 47.818 52.0087 48.2516 52.6536 48.4185C49.7663 52.4469 47.7787 57.0755 46.8464 61.9406C46.1905 60.9824 45.5774 59.978 45.0162 58.9408C44.9341 58.7888 44.7925 58.6783 44.625 58.6359C44.4577 58.5935 44.2804 58.6231 44.1361 58.7174C43.1079 59.3878 42.1012 60.1233 41.1289 60.9131C42.1302 55.6574 44.199 50.5896 47.1656 46.1425L51.1631 47.243ZM39.0537 52.5775H42.3423C41.0398 55.7236 40.1209 59.0296 39.6277 62.392C39.5902 62.649 39.7171 62.9019 39.9457 63.0249C40.1746 63.1479 40.4556 63.115 40.6494 62.9422C41.7987 61.9168 43.01 60.9696 44.2579 60.12C45.0028 61.4359 45.8277 62.696 46.7154 63.8736C46.8338 64.0308 47.0176 64.1196 47.2083 64.1196C47.2593 64.1196 47.3105 64.1132 47.3612 64.1001C47.6026 64.0384 47.783 63.8379 47.819 63.5917C48.364 59.8706 49.5478 56.2689 51.2961 52.9568V73.8163H39.0537V52.5775ZM52.5309 73.8163V52.5775H57.4693V73.8163H52.5309ZM65.8641 58.7174C65.7197 58.6231 65.5421 58.5938 65.3752 58.6362C65.2079 58.6786 65.066 58.7891 64.9839 58.9408C64.4227 59.978 63.8096 60.9827 63.1538 61.9406C62.2215 57.0752 60.2339 52.4469 57.3463 48.4189C57.9911 48.2522 58.5298 47.8183 58.8371 47.243L62.8355 46.1422C65.8015 50.5902 67.8703 55.658 68.8716 60.9131C67.899 60.1233 66.8922 59.3878 65.8641 58.7174ZM73.7654 51.3428H67.1235C66.2538 49.4192 65.2379 47.5628 64.0864 45.798L69.2686 44.3713C69.3391 44.3518 69.4087 44.3295 69.4774 44.3054H73.7654V51.3428Z" fill="#8A8A8A"/>
</g>
<defs>
<clipPath id="clip0">
<rect x="35" y="35" width="40" height="40" fill="white"/>
</clipPath>
</defs>
</svg>
