<svg width="32" height="32" viewBox="0 0 32 32" fill="none" xmlns="http://www.w3.org/2000/svg">
<g clip-path="url(#clip0)">
<path d="M12.6918 16.1831C12.448 15.9387 12.0518 15.9387 11.808 16.1831C11.5637 16.4269 11.5637 16.8231 11.808 17.0669C12.0518 17.3112 12.448 17.3112 12.6918 17.0669C12.9362 16.8231 12.9362 16.4269 12.6918 16.1831Z" fill="#8A8A8A"/>
<path d="M16 17.25C14.9661 17.25 14.125 18.0911 14.125 19.125C14.125 20.1589 14.9661 21 16 21C17.0339 21 17.875 20.1589 17.875 19.125C17.875 18.0911 17.0339 17.25 16 17.25ZM16 19.75C15.6554 19.75 15.375 19.4696 15.375 19.125C15.375 18.7804 15.6554 18.5 16 18.5C16.3446 18.5 16.625 18.7804 16.625 19.125C16.625 19.4696 16.3446 19.75 16 19.75Z" fill="#8A8A8A"/>
<path d="M16 14.125C15.3014 14.125 14.6258 14.2662 13.9923 14.5447C13.6763 14.6836 13.5327 15.0524 13.6716 15.3684C13.8104 15.6844 14.1792 15.8279 14.4952 15.6891C14.9693 15.4807 15.4756 15.375 16 15.375C18.0677 15.375 19.75 17.0573 19.75 19.125C19.75 21.1927 18.0677 22.875 16 22.875C13.9323 22.875 12.25 21.1927 12.25 19.125C12.25 19.1036 12.2499 19.0827 12.2504 19.0614C12.2584 18.7163 11.9852 18.4301 11.6401 18.4221C11.2945 18.4134 11.0088 18.6873 11.0008 19.0324C11.0001 19.0635 11 19.0939 11 19.125C11 21.882 13.243 24.125 16 24.125C18.757 24.125 21 21.882 21 19.125C21 16.368 18.757 14.125 16 14.125Z" fill="#8A8A8A"/>
<path d="M16 4.75C15.6548 4.75 15.375 5.02981 15.375 5.375V9.125C15.375 9.47019 15.6548 9.75 16 9.75C16.3452 9.75 16.625 9.47019 16.625 9.125V5.375C16.625 5.02981 16.3452 4.75 16 4.75Z" fill="#8A8A8A"/>
<path d="M9.0178 9.38361L6.36654 6.73236C6.12248 6.4883 5.72673 6.4883 5.48261 6.73236C5.23854 6.97643 5.23854 7.37217 5.48261 7.6163L8.13386 10.2675C8.37792 10.5116 8.77373 10.5117 9.0178 10.2675C9.26186 10.0235 9.26186 9.62774 9.0178 9.38361Z" fill="#8A8A8A"/>
<path d="M26.5178 6.73236C26.2737 6.4883 25.878 6.4883 25.6338 6.73236L22.9826 9.38361C22.7385 9.62767 22.7385 10.0234 22.9826 10.2675C23.2266 10.5116 23.6224 10.5117 23.8665 10.2675L26.5178 7.6163C26.7618 7.37224 26.7618 6.97649 26.5178 6.73236Z" fill="#8A8A8A"/>
<path d="M31.8434 19.2319C27.8731 14.7369 21.9779 11 16 11C10.0213 11 4.12612 14.7379 0.156557 19.2319C-0.071943 19.4906 -0.047443 19.8856 0.211244 20.1141C0.469994 20.3426 0.864995 20.3181 1.09343 20.0594C1.22662 19.9086 1.36306 19.7583 1.50124 19.609C4.58968 24.2755 10.1883 27.25 16 27.25C21.8117 27.25 27.4103 24.2755 30.4987 19.609C30.6369 19.7584 30.7734 19.9086 30.9066 20.0594C31.1343 20.3173 31.5292 20.3433 31.7887 20.1141C32.0474 19.8856 32.0719 19.4906 31.8434 19.2319ZM16 26C10.5053 26 5.22056 23.1451 2.39443 18.6887C4.62118 16.5068 9.76631 12.25 16 12.25C22.2337 12.25 27.3788 16.5068 29.6056 18.6887C26.7794 23.1451 21.4947 26 16 26Z" fill="#8A8A8A"/>
</g>
<defs>
<clipPath id="clip0">
<rect width="32" height="32" fill="white"/>
</clipPath>
</defs>
</svg>
