<svg width="40" height="40" viewBox="0 0 40 40" fill="none" xmlns="http://www.w3.org/2000/svg">
<g clip-path="url(#clip0)">
<path d="M39.3828 8.07093H36.1259C36.2205 7.93818 36.3063 7.79871 36.3814 7.65253C36.8123 6.81086 36.8706 5.81964 36.5413 4.9328L35.5543 2.2802C35.2254 1.39427 34.5341 0.681984 33.6586 0.326148C32.7821 -0.029994 31.7894 -0.00161254 30.9346 0.404273L23.1239 4.1137C22.7378 3.83782 22.2657 3.67486 21.7561 3.67486H18.2441C17.7344 3.67486 17.262 3.83813 16.876 4.11401L9.06559 0.403968C8.21079 -0.00161251 7.21805 -0.029994 6.34158 0.326148C5.46603 0.681984 4.7748 1.39427 4.44582 2.27989L3.45888 4.9331C3.12959 5.81964 3.18788 6.81086 3.61909 7.65253C3.69386 7.79871 3.77992 7.93848 3.87453 8.07093H0.617373C0.27649 8.07093 0 8.34712 0 8.68831V13.1326C0 13.4735 0.27649 13.75 0.617373 13.75C0.958256 13.75 1.23475 13.4735 1.23475 13.1326V9.30537H5.52279C5.59145 9.32948 5.66103 9.35176 5.73153 9.37129L10.9144 10.798C9.76261 12.5628 8.74668 14.4192 7.87692 16.3428H1.23475V15.6018C1.23475 15.2609 0.958256 14.9847 0.617373 14.9847C0.27649 14.9847 0 15.2609 0 15.6018V16.9601C0 17.301 0.27649 17.5775 0.617373 17.5775H2.81892V39.4334C2.81892 39.7746 3.09541 40.0507 3.43629 40.0507H36.5639C36.9048 40.0507 37.1812 39.7746 37.1812 39.4334V35.8488C37.1812 35.5079 36.9048 35.2314 36.5639 35.2314C36.2227 35.2314 35.9465 35.5079 35.9465 35.8488V38.8163H23.7037V17.9571C25.4524 21.2692 26.6362 24.8706 27.1809 28.5917C27.2169 28.8379 27.3976 29.0384 27.639 29.1001C27.6896 29.1132 27.7409 29.1193 27.7919 29.1193C27.9826 29.1193 28.1663 29.0308 28.2847 28.8736C29.1722 27.6963 29.9974 26.4359 30.7423 25.12C31.9899 25.9696 33.2011 26.9168 34.3504 27.9422C34.5442 28.115 34.8256 28.1482 35.0542 28.0249C35.2827 27.9019 35.41 27.649 35.3722 27.392C34.8793 24.0299 33.9604 20.7236 32.6579 17.5775H35.9462V33.3793C35.9462 33.7205 36.2227 33.9966 36.5636 33.9966C36.9048 33.9966 37.1809 33.7205 37.1809 33.3793V17.5775H39.3828C39.7237 17.5775 39.9999 17.301 39.9999 16.9601V8.68831C40.0002 8.34712 39.724 8.07093 39.3828 8.07093ZM31.4641 1.51939C32.0149 1.25816 32.6289 1.24046 33.1938 1.46995C33.7578 1.69914 34.185 2.13951 34.3971 2.7105L35.3838 5.36279C35.5962 5.93408 35.5598 6.54749 35.2821 7.08979C35.0047 7.63178 34.5283 8.01936 33.9412 8.18079L24.1142 10.8862V7.91926C26.323 6.56671 31.8297 3.77709 33.2002 5.71161C33.397 5.98962 33.7822 6.05585 34.0605 5.8587C34.3388 5.66156 34.4047 5.27612 34.2076 4.9981C33.1499 3.50487 30.9208 3.43224 27.5819 4.78265C26.2065 5.33868 24.9366 6.0174 24.1142 6.48828V6.03265C24.1142 5.70215 24.0455 5.3872 23.9222 5.10125L31.4641 1.51939ZM18.2441 4.9093H21.7561C22.3756 4.9093 22.8794 5.41345 22.8794 6.03265V11.1355C22.8794 11.755 22.3756 12.2589 21.7561 12.2589H18.2441C17.6246 12.2589 17.1207 11.755 17.1207 11.1355V6.03265C17.1207 5.41314 17.6246 4.9093 18.2441 4.9093ZM17.2065 16.3425C17.797 15.3613 18.4397 14.4104 19.1312 13.4936H20.8683C21.5601 14.4104 22.2029 15.3613 22.7931 16.3425H17.2065ZM4.71804 7.08979C4.44033 6.54749 4.40401 5.93408 4.61611 5.3631L5.60336 2.71019C5.81515 2.13951 6.2424 1.69914 6.80636 1.46995C7.37094 1.24046 7.98526 1.25816 8.5358 1.51939L16.0779 5.10186C15.9547 5.38751 15.886 5.70215 15.886 6.03296V6.52368C15.0663 6.05188 13.7678 5.35302 12.3572 4.78265C9.01859 3.43224 6.78927 3.50487 5.73153 4.9981C5.53439 5.27612 5.6003 5.66156 5.87863 5.8587C6.15695 6.05585 6.54208 5.98993 6.73892 5.71161C8.12229 3.75878 13.7195 6.61951 15.886 7.9568V10.8862L6.05929 8.1811C5.47182 8.01936 4.99544 7.63178 4.71804 7.08979ZM16.1631 12.243C16.4704 12.818 17.0087 13.2516 17.6536 13.4185C14.7663 17.4469 12.7787 22.0755 11.8464 26.9406C11.1905 25.9824 10.5774 24.978 10.0162 23.9408C9.93412 23.7888 9.79252 23.6783 9.62498 23.6359C9.45774 23.5935 9.28043 23.6231 9.13608 23.7174C8.10794 24.3878 7.10116 25.1233 6.12887 25.9131C7.13016 20.6574 9.19895 15.5896 12.1656 11.1425L16.1631 12.243ZM4.05367 17.5775H7.34225C6.03976 20.7236 5.12087 24.0296 4.6277 27.392C4.59017 27.649 4.71712 27.9019 4.9457 28.0249C5.17458 28.1479 5.45565 28.115 5.64944 27.9422C6.79873 26.9168 8.00998 25.9696 9.25785 25.12C10.0028 26.4359 10.8277 27.696 11.7154 28.8736C11.8338 29.0308 12.0176 29.1196 12.2083 29.1196C12.2593 29.1196 12.3105 29.1132 12.3612 29.1001C12.6026 29.0384 12.783 28.8379 12.819 28.5917C13.364 24.8706 14.5478 21.2689 16.2961 17.9568V38.8163H4.05367V17.5775ZM17.5309 38.8163V17.5775H22.4693V38.8163H17.5309ZM30.8641 23.7174C30.7197 23.6231 30.5421 23.5938 30.3752 23.6362C30.2079 23.6786 30.066 23.7891 29.9839 23.9408C29.4227 24.978 28.8096 25.9827 28.1538 26.9406C27.2215 22.0752 25.2339 17.4469 22.3463 13.4189C22.9911 13.2522 23.5298 12.8183 23.8371 12.243L27.8355 11.1422C30.8015 15.5902 32.8703 20.658 33.8716 25.9131C32.899 25.1233 31.8922 24.3878 30.8641 23.7174ZM38.7654 16.3428H32.1235C31.2538 14.4192 30.2379 12.5628 29.0864 10.798L34.2686 9.37129C34.3391 9.35176 34.4087 9.32948 34.4774 9.30537H38.7654V16.3428Z" fill="#8A8A8A"/>
</g>
<defs>
<clipPath id="clip0">
<rect width="40" height="40" fill="white"/>
</clipPath>
</defs>
</svg>
