<svg width="108" height="108" viewBox="0 0 108 108" fill="none" xmlns="http://www.w3.org/2000/svg">
<g clip-path="url(#clip0)">
<path d="M106.334 21.7915H97.54C97.7955 21.4331 98.027 21.0565 98.2297 20.6618C99.3932 18.3893 99.5505 15.713 98.6615 13.3185L95.9967 6.15653C95.1085 3.76452 93.2422 1.84135 90.8782 0.880596C88.5117 -0.0809861 85.8313 -0.00435625 83.5234 1.09153L62.4345 11.107C61.3921 10.3621 60.1174 9.92211 58.7414 9.92211H49.2591C47.883 9.92211 46.6075 10.3629 45.5652 11.1078L24.4771 1.09071C22.1691 -0.00435615 19.4887 -0.0809861 17.1223 0.880596C14.7583 1.84135 12.892 3.76452 12.0037 6.1557L9.33897 13.3194C8.44989 15.713 8.60727 18.3893 9.77155 20.6618C9.97343 21.0565 10.2058 21.4339 10.4612 21.7915H1.66691C0.746524 21.7915 0 22.5372 0 23.4584V35.458C0 36.3784 0.746524 37.1249 1.66691 37.1249C2.58729 37.1249 3.33382 36.3784 3.33382 35.458V25.1245H14.9115C15.0969 25.1896 15.2848 25.2498 15.4751 25.3025L29.4687 29.1546C26.3591 33.9197 23.616 38.9319 21.2677 44.1254H3.33382V42.1248C3.33382 41.2044 2.58729 40.4587 1.66691 40.4587C0.746524 40.4587 0 41.2044 0 42.1248V45.7924C0 46.7127 0.746524 47.4593 1.66691 47.4593H7.61108V106.47C7.61108 107.391 8.35761 108.137 9.27799 108.137H98.7225C99.6428 108.137 100.389 107.391 100.389 106.47V96.7917C100.389 95.8713 99.6428 95.1248 98.7225 95.1248C97.8012 95.1248 97.0555 95.8713 97.0555 96.7917V104.804H64V48.4843C68.7214 57.4269 71.9176 67.1507 73.3884 77.1975C73.4856 77.8624 73.9734 78.4038 74.6252 78.5702C74.762 78.6056 74.9004 78.6221 75.038 78.6221C75.553 78.6221 76.049 78.3832 76.3688 77.9588C78.7649 74.7799 80.9929 71.3769 83.0042 67.8239C86.3727 70.1178 89.643 72.6755 92.7461 75.444C93.2694 75.9104 94.0291 76.0002 94.6462 75.6673C95.2634 75.3353 95.607 74.6522 95.5048 73.9584C94.1741 64.8806 91.6931 55.9537 88.1764 47.4593H97.0547V90.124C97.0547 91.0452 97.8012 91.7909 98.7216 91.7909C99.6428 91.7909 100.389 91.0452 100.389 90.124V47.4593H106.334C107.254 47.4593 108 46.7127 108 45.7924V23.4584C108 22.5372 107.255 21.7915 106.334 21.7915ZM84.953 4.10235C86.4402 3.39703 88.0981 3.34923 89.6233 3.96887C91.146 4.58767 92.2995 5.77668 92.8722 7.31834L95.5361 14.4795C96.1096 16.022 96.0116 17.6782 95.2617 19.1424C94.5127 20.6058 93.2265 21.6523 91.6412 22.0881L65.1083 29.3927V21.382C71.0722 17.7301 85.9401 10.1981 89.6406 15.4213C90.172 16.172 91.2119 16.3508 91.9634 15.8185C92.7148 15.2862 92.8928 14.2455 92.3605 13.4949C89.5046 9.46315 83.4863 9.26705 74.4711 12.9132C70.7575 14.4144 67.3289 16.247 65.1083 17.5184V16.2882C65.1083 15.3958 64.9229 14.5455 64.59 13.7734L84.953 4.10235ZM49.2591 13.2551H58.7414C60.4141 13.2551 61.7745 14.6163 61.7745 16.2882V30.0659C61.7745 31.7386 60.4141 33.099 58.7414 33.099H49.2591C47.5864 33.099 46.226 31.7386 46.226 30.0659V16.2882C46.226 14.6155 47.5864 13.2551 49.2591 13.2551ZM46.4575 44.1246C48.0519 41.4755 49.7872 38.908 51.6544 36.4328H56.3444C58.2124 38.908 59.9477 41.4755 61.5413 44.1246H46.4575ZM12.7387 19.1424C11.9889 17.6782 11.8908 16.022 12.4635 14.4804L15.1291 7.31751C15.7009 5.77668 16.8545 4.58767 18.3772 3.96887C19.9015 3.34923 21.5602 3.39703 23.0467 4.10235L43.4105 13.775C43.0776 14.5463 42.8922 15.3958 42.8922 16.289V17.6139C40.679 16.3401 37.1729 14.4532 33.3645 12.9132C24.3502 9.26705 18.331 9.46315 15.4751 13.4949C14.9428 14.2455 15.1208 15.2862 15.8723 15.8185C16.6238 16.3508 17.6636 16.1728 18.1951 15.4213C21.9302 10.1487 37.0428 17.8727 42.8922 21.4833V29.3927L16.3601 22.089C14.7739 21.6523 13.4877 20.6058 12.7387 19.1424ZM43.6403 33.0561C44.4701 34.6085 45.9236 35.7794 47.6647 36.2301C39.869 47.1066 34.5024 59.6039 31.9852 72.7397C30.2144 70.1524 28.5591 67.4407 27.0438 64.64C26.8221 64.2297 26.4398 63.9314 25.9874 63.8169C25.5359 63.7023 25.0572 63.7823 24.6674 64.0369C21.8914 65.8472 19.1731 67.8329 16.548 69.9654C19.2514 55.7748 24.8372 42.0919 32.8471 30.0849L43.6403 33.0561ZM10.9449 47.4593H19.8241C16.3073 55.9537 13.8264 64.8798 12.4948 73.9584C12.3935 74.6522 12.7362 75.3353 13.3534 75.6673C13.9714 75.9994 14.7303 75.9104 15.2535 75.444C18.3566 72.6755 21.6269 70.1178 24.9962 67.8239C27.0075 71.3769 29.2347 74.7791 31.6317 77.9588C31.9514 78.3832 32.4474 78.6229 32.9624 78.6229C33.1 78.6229 33.2384 78.6056 33.3752 78.5702C34.027 78.4038 34.514 77.8624 34.6112 77.1975C36.0828 67.1507 39.279 57.4261 43.9996 48.4835V104.804H10.9449V47.4593ZM47.3334 104.804V47.4593H60.667V104.804H47.3334ZM83.333 64.0369C82.9433 63.7823 82.4637 63.7032 82.013 63.8177C81.5615 63.9322 81.1783 64.2305 80.9567 64.64C79.4414 67.4407 77.786 70.1533 76.0153 72.7397C73.498 59.6031 68.1314 47.1066 60.335 36.2309C62.076 35.781 63.5303 34.6093 64.3601 33.0561L75.1559 30.084C83.1641 42.0935 88.7498 55.7765 91.4533 69.9654C88.8273 67.8329 86.109 65.8472 83.333 64.0369ZM104.667 44.1254H86.7336C84.3852 38.9319 81.6422 33.9197 78.5333 29.1546L92.5253 25.3025C92.7157 25.2498 92.9035 25.1896 93.0889 25.1245H104.667V44.1254Z" fill="black"/>
</g>
<defs>
<clipPath id="clip0">
<rect width="108" height="108" fill="white"/>
</clipPath>
</defs>
</svg>
