<svg width="50" height="50" viewBox="0 0 50 50" fill="none" xmlns="http://www.w3.org/2000/svg">
<path d="M46.4596 9.76562H42.5318C42.5709 9.59033 42.5923 9.4084 42.5923 9.22148V2.49727C42.5923 1.12031 41.472 0 40.0949 0H37.6891C33.6096 0 30.0541 2.28594 28.2358 5.64395C27.5347 4.604 26.3459 3.91865 25 3.91865C23.5808 3.91865 22.3365 4.68096 21.6542 5.81729C19.8656 2.36484 16.2586 0 12.1094 0H9.70352C8.32656 0 7.20625 1.12031 7.20625 2.49727V9.22139C7.20625 9.4083 7.22754 9.59023 7.2667 9.76553H3.54043C2.12666 9.76562 0.976562 10.9157 0.976562 12.3294V17.7486C0.976562 18.8443 1.66768 19.7812 2.63672 20.1475V46.6309C2.63672 48.4886 4.14814 50 6.00586 50H43.9941C45.8519 50 47.3633 48.4886 47.3633 46.6309V36.2127C47.3633 35.6734 46.926 35.2361 46.3867 35.2361C45.8475 35.2361 45.4102 35.6734 45.4102 36.2127V46.6309C45.4102 47.4116 44.7749 48.0469 43.9941 48.0469H33.3984V41.6491C33.3984 41.1099 32.9611 40.6726 32.4219 40.6726C31.8826 40.6726 31.4453 41.1099 31.4453 41.6491V48.0469H29.1016V20.3125H30.668V20.8884C30.668 21.2828 30.9053 21.6385 31.2693 21.7899C31.6336 21.9416 32.053 21.8592 32.3328 21.5811L34.7695 19.1602L37.2062 21.5812C37.3929 21.7666 37.6417 21.865 37.8947 21.865C38.0211 21.865 38.1485 21.8405 38.2697 21.79C38.6339 21.6386 38.8711 21.2828 38.8711 20.8885V20.3125H42.6842H45.4102V27.6367C45.4102 28.176 45.8475 28.6133 46.3867 28.6133C46.926 28.6133 47.3633 28.176 47.3633 27.6367V20.1476C48.3323 19.7813 49.0234 18.8443 49.0234 17.7487V12.3295C49.0234 10.9157 47.8733 9.76562 46.4596 9.76562ZM25 5.87168C26.0736 5.87168 26.947 6.74502 26.947 7.81865V9.76562H23.0531V7.81865H23.053C23.053 6.74512 23.9264 5.87168 25 5.87168ZM9.15938 2.49727C9.15938 2.19717 9.40352 1.95312 9.70352 1.95312H12.1094C15.9009 1.95312 19.1384 4.36699 20.3685 7.73818C18.4403 6.15557 16.0131 5.27344 13.4766 5.27344C12.9373 5.27344 12.5 5.71064 12.5 6.25C12.5 6.78936 12.9373 7.22656 13.4766 7.22656C15.8192 7.22656 18.0485 8.14355 19.7073 9.76562H9.70352C9.40352 9.76562 9.15938 9.52148 9.15938 9.22148V2.49727ZM20.8984 48.0469H13.2528L20.8984 40.4013V48.0469ZM20.8984 37.6391L10.4906 48.0469H6.00586C5.63223 48.0469 5.29297 47.9004 5.03965 47.6631L20.8984 31.8043V37.6391ZM20.8984 20.4581C20.8649 20.4838 20.8323 20.5111 20.8017 20.5417L14.9344 26.4089C14.553 26.7902 14.553 27.4086 14.9344 27.79C15.1251 27.9807 15.375 28.0761 15.6249 28.0761C15.8748 28.0761 16.1247 27.9807 16.3154 27.79L20.8984 23.2071V29.042L4.58984 45.3506V39.5157L10.9525 33.153C11.3339 32.7717 11.3339 32.1533 10.9525 31.7719C10.5711 31.3906 9.95293 31.3906 9.57139 31.7719L4.58984 36.7535V30.9188L15.196 20.3125H20.8984V20.4581ZM4.58984 28.1565V20.3125H8.9375H12.4339L4.58984 28.1565ZM27.1484 48.0469H22.8516V20.3125H26.7903H27.1484V48.0469ZM30.668 18.3595H3.61328V18.3594H3.54043C3.20371 18.3594 2.92969 18.0854 2.92969 17.7487V12.3295C2.92969 11.9928 3.20371 11.7188 3.54043 11.7188H30.668V18.3595ZM36.918 18.5415L35.4578 17.0908C35.2675 16.9016 35.0185 16.807 34.7695 16.807C34.5206 16.807 34.2716 16.9017 34.0812 17.0908L32.6211 18.5415V11.7188H36.918V18.5415ZM37.8945 9.76553H31.6445H30.2926C31.9515 8.14355 34.1808 7.22656 36.5234 7.22656C37.0627 7.22656 37.5 6.78936 37.5 6.25C37.5 5.71064 37.0627 5.27344 36.5234 5.27344C33.8607 5.27344 31.3182 6.24521 29.3474 7.9793C30.5085 4.48291 33.808 1.95312 37.6892 1.95312H40.095C40.395 1.95312 40.6392 2.19727 40.6392 2.49727V9.22139C40.6392 9.52148 40.395 9.76553 40.095 9.76553H37.8945ZM47.0703 17.7486C47.0703 18.0854 46.7963 18.3593 46.4596 18.3593H46.3867H38.8711V11.7188H46.4596C46.7963 11.7188 47.0703 11.9927 47.0703 12.3294V17.7486Z" fill="white"/>
<path d="M47.0771 31.3086C46.8955 31.1259 46.6436 31.0224 46.3867 31.0224C46.1299 31.0224 45.8779 31.126 45.6963 31.3086C45.5146 31.4902 45.4102 31.7413 45.4102 31.999C45.4102 32.2558 45.5146 32.5068 45.6963 32.6894C45.8779 32.871 46.1299 32.9756 46.3867 32.9756C46.6436 32.9756 46.8955 32.8711 47.0771 32.6894C47.2587 32.5068 47.3633 32.2558 47.3633 31.999C47.3633 31.7422 47.2588 31.4902 47.0771 31.3086Z" fill="white"/>
<path d="M33.1122 37.3594C32.9307 37.1778 32.6787 37.0732 32.4219 37.0732C32.165 37.0732 31.9131 37.1777 31.7314 37.3594C31.5498 37.541 31.4453 37.793 31.4453 38.0498C31.4453 38.3066 31.5497 38.5586 31.7314 38.7402C31.9131 38.9218 32.165 39.0264 32.4219 39.0264C32.6787 39.0264 32.9307 38.9219 33.1122 38.7402C33.2938 38.5586 33.3984 38.3066 33.3984 38.0498C33.3984 37.793 33.2939 37.541 33.1122 37.3594Z" fill="white"/>
<path d="M13.6766 29.0479C13.495 28.8652 13.243 28.7617 12.9862 28.7617C12.7294 28.7617 12.4774 28.8653 12.2959 29.0479C12.1142 29.2295 12.0096 29.4814 12.0096 29.7383C12.0096 29.9951 12.1141 30.2471 12.2959 30.4287C12.4774 30.6104 12.7294 30.7148 12.9862 30.7148C13.2441 30.7148 13.495 30.6104 13.6766 30.4287C13.8583 30.247 13.9628 29.9951 13.9628 29.7383C13.9628 29.4814 13.8584 29.2295 13.6766 29.0479Z" fill="white"/>
</svg>
