<svg width="16" height="16" viewBox="0 0 16 16" fill="none" xmlns="http://www.w3.org/2000/svg">
<g clip-path="url(#clip0)">
<path d="M15.2378 0.761919C14.2213 -0.253973 12.568 -0.253973 11.5516 0.761919L1.10827 11.2052C1.10335 11.2101 1.10045 11.2162 1.09611 11.2214C1.09003 11.2284 1.08481 11.2359 1.07931 11.2434C1.06396 11.2649 1.05209 11.2877 1.04311 11.3127C1.04051 11.3202 1.03674 11.3268 1.03471 11.3344C1.03385 11.3373 1.03211 11.3402 1.03124 11.3431L0.00752941 15.6435C0.00289593 15.6629 0.00173756 15.6826 0.00115837 15.702C0.00115837 15.7058 0 15.7092 0 15.713C0.000289593 15.746 0.00752941 15.7782 0.0188235 15.8092C0.0214299 15.8164 0.0243258 15.8228 0.0275113 15.8297C0.0417014 15.8607 0.0593665 15.8905 0.0842715 15.9154C0.111783 15.943 0.144217 15.9641 0.179258 15.9786C0.214299 15.993 0.251656 16.0003 0.289014 16.0003C0.311312 16.0003 0.3339 15.9977 0.355909 15.9925L4.65636 14.9688C4.66418 14.967 4.67113 14.9627 4.67866 14.9601C4.68851 14.9569 4.69777 14.9531 4.70733 14.9488C4.72818 14.9392 4.74758 14.9273 4.76554 14.9132C4.77249 14.9077 4.77973 14.9036 4.78639 14.8975C4.78871 14.8952 4.7916 14.894 4.79392 14.8917L15.2375 4.44814C16.254 3.43167 16.254 1.7781 15.2378 0.761919ZM14.8283 1.1714C15.5488 1.8922 15.6102 3.02393 15.0165 3.81741L12.1823 0.983167C12.9761 0.389502 14.1078 0.450896 14.8283 1.1714ZM13.3948 5.47186L10.5279 2.60489L10.9373 2.1954L13.8043 5.06237L13.3948 5.47186ZM1.43667 14.563C1.32344 14.4498 1.14042 14.4498 1.02719 14.563L0.807964 14.7823L1.54758 11.6755L2.82816 11.5333L2.66338 13.0166C2.66223 13.0276 2.66628 13.0378 2.66628 13.0485C2.66628 13.0595 2.66223 13.0693 2.66338 13.0803C2.66454 13.0899 2.66947 13.0977 2.67149 13.107C2.67497 13.1238 2.67989 13.1391 2.68597 13.1548C2.6935 13.1736 2.70248 13.1907 2.71348 13.2072C2.72246 13.2205 2.73144 13.2324 2.74244 13.2439C2.75634 13.2587 2.7714 13.2712 2.78791 13.2828C2.80094 13.2917 2.81339 13.3001 2.82787 13.3071C2.84699 13.3161 2.86697 13.3213 2.88782 13.3262C2.89882 13.3288 2.9078 13.3349 2.91909 13.3363C2.92952 13.3375 2.93995 13.3381 2.95066 13.3381H2.95095H2.95124H2.95153H2.95182C2.96224 13.3381 2.97296 13.3375 2.98338 13.3363L4.46668 13.1715L4.32449 14.4521L1.21745 15.1917L1.43667 14.9725C1.54961 14.8596 1.54961 14.6763 1.43667 14.563ZM5.07106 12.9764L11.5516 6.49557C11.6648 6.38234 11.6648 6.19931 11.5516 6.08608C11.4383 5.97285 11.2553 5.97285 11.1421 6.08608L4.66157 12.5669L3.27935 12.7204L3.43283 11.3381L9.91392 4.85763C10.0271 4.7444 10.0271 4.56138 9.91392 4.44814C9.80069 4.33491 9.61766 4.33491 9.50443 4.44814L3.02335 10.9287L2.10157 11.0312L10.1184 3.01437L12.9853 5.88134L4.96854 13.8981L5.07106 12.9764ZM14.2138 4.65289L11.3468 1.78592L11.7566 1.37614L14.6236 4.24311L14.2138 4.65289Z" fill="black"/>
</g>
<defs>
<clipPath id="clip0">
<rect width="16" height="16" fill="white"/>
</clipPath>
</defs>
</svg>
