<svg width="50" height="50" viewBox="0 0 50 50" fill="none" xmlns="http://www.w3.org/2000/svg">
<path d="M49.7083 20.133L32.4307 2.85547C32.1458 2.57061 31.7174 2.48545 31.3452 2.63965C30.9731 2.79385 30.7304 3.15713 30.7304 3.55986V12.9629H25.8764C18.9646 12.9629 12.4664 15.6545 7.579 20.5419C2.6916 25.4293 0 31.9273 0 38.8393V46.4401C0 46.8512 0.252539 47.22 0.635742 47.3688C0.752832 47.4143 0.874902 47.4362 0.995801 47.4362C1.27021 47.4362 1.53887 47.3227 1.73125 47.112L10.81 37.1763C15.7253 31.797 22.7235 28.7117 30.0103 28.7117H30.7304V38.1148C30.7304 38.5178 30.9731 38.8809 31.3452 39.0351C31.7174 39.1895 32.1458 39.104 32.4307 38.8192L49.7083 21.5415C49.895 21.3548 50 21.1014 50 20.8372C50 20.573 49.895 20.3197 49.7083 20.133ZM32.7225 35.7103V27.7157C32.7225 27.1656 32.2765 26.7197 31.7265 26.7197H30.0104C22.1655 26.7197 14.6313 30.0412 9.33955 35.8326L1.99219 43.8735V38.8393C1.99219 25.6694 12.7066 14.955 25.8766 14.955H31.7266C32.2766 14.955 32.7226 14.5091 32.7226 13.959V5.96445L47.5955 20.8374L32.7225 35.7103Z" fill="white"/>
<path d="M24.9461 16.6334C24.6748 16.6334 24.4004 16.639 24.1307 16.6498C23.5811 16.6719 23.1534 17.1354 23.1756 17.6851C23.1972 18.2211 23.6385 18.641 24.1702 18.641C24.1837 18.641 24.1973 18.6408 24.2109 18.6401C24.4541 18.6304 24.7013 18.6254 24.9461 18.6254C25.4962 18.6254 25.9421 18.1795 25.9421 17.6294C25.9421 17.0793 25.4962 16.6334 24.9461 16.6334Z" fill="white"/>
<path d="M21.5917 17.8985C21.4668 17.3629 20.9316 17.0299 20.3955 17.1548C17.7724 17.7665 15.3367 18.8872 13.1562 20.4858C12.7124 20.811 12.6165 21.4344 12.9417 21.8779C13.1368 22.144 13.4392 22.2851 13.7458 22.2851C13.9502 22.2851 14.1564 22.2225 14.334 22.0922C16.2965 20.6534 18.4883 19.6449 20.848 19.0945C21.3837 18.9698 21.7166 18.4343 21.5917 17.8985Z" fill="white"/>
</svg>
