<svg width="32" height="32" viewBox="0 0 32 32" fill="none" xmlns="http://www.w3.org/2000/svg">
<path d="M31.8133 12.8851L20.7556 1.8275C20.5733 1.64519 20.2991 1.59069 20.0609 1.68937C19.8228 1.78806 19.6674 2.02056 19.6674 2.27831V8.29625H16.5609C12.1373 8.29625 7.9785 10.0189 4.85056 13.1468C1.72263 16.2747 0 20.4335 0 24.8571V29.7217C0 29.9848 0.161625 30.2208 0.406875 30.316C0.481813 30.3451 0.559937 30.3592 0.637312 30.3592C0.812937 30.3592 0.984875 30.2865 1.108 30.1517L6.91838 23.7928C10.0642 20.3501 14.5431 18.3755 19.2066 18.3755H19.6674V24.3935C19.6674 24.6514 19.8228 24.8837 20.0609 24.9824C20.2991 25.0812 20.5733 25.0266 20.7556 24.8443L31.8133 13.7866C31.9328 13.6671 32 13.5049 32 13.3358C32 13.1667 31.9328 13.0046 31.8133 12.8851ZM20.9424 22.8546V17.7381C20.9424 17.386 20.6569 17.1006 20.3049 17.1006H19.2066C14.1859 17.1006 9.364 19.2264 5.97731 22.9329L1.275 28.0791V24.8571C1.275 16.4284 8.13225 9.57119 16.561 9.57119H20.305C20.657 9.57119 20.9424 9.28581 20.9424 8.93375V3.81725L30.4611 13.3359L20.9424 22.8546Z" fill="#8A8A8A"/>
<path d="M15.9657 10.6454C15.792 10.6454 15.6164 10.6489 15.4438 10.6559C15.0921 10.67 14.8183 10.9667 14.8326 11.3184C14.8464 11.6615 15.1288 11.9303 15.4691 11.9303C15.4778 11.9303 15.4864 11.9301 15.4951 11.9297C15.6507 11.9234 15.809 11.9203 15.9657 11.9203C16.3177 11.9203 16.6031 11.6349 16.6031 11.2828C16.6031 10.9308 16.3177 10.6454 15.9657 10.6454Z" fill="#8A8A8A"/>
<path d="M13.8188 11.4551C13.7389 11.1123 13.3964 10.8991 13.0532 10.9791C11.3744 11.3706 9.81563 12.0878 8.42006 13.1109C8.13606 13.3191 8.07469 13.718 8.28281 14.0019C8.40769 14.1722 8.60119 14.2624 8.79744 14.2624C8.92825 14.2624 9.06025 14.2224 9.17388 14.139C10.4299 13.2182 11.8326 12.5728 13.3429 12.2205C13.6857 12.1407 13.8987 11.7979 13.8188 11.4551Z" fill="#8A8A8A"/>
</svg>
