<svg width="32" height="32" viewBox="0 0 32 32" fill="none" xmlns="http://www.w3.org/2000/svg">
<path d="M27.4215 2.60494H20.1773V0.637438C20.1773 0.285438 19.8919 0 19.5399 0H12.4597C12.1077 0 11.8223 0.285438 11.8223 0.637438V2.60494H4.57811C4.22605 2.60494 3.94067 2.89037 3.94067 3.24237V7.85112C3.94067 8.20312 4.22605 8.48856 4.57811 8.48856H5.54374V31.3625C5.54374 31.7145 5.82911 31.9999 6.18117 31.9999H25.8185C26.1705 31.9999 26.4559 31.7145 26.4559 31.3625V8.48862H27.4215C27.7735 8.48862 28.059 8.20319 28.059 7.85119V3.24244C28.059 2.89038 27.7735 2.60494 27.4215 2.60494ZM13.0972 1.27488H18.9024V2.60494H13.0972V1.27488ZM25.181 30.7251H20.1105V13.2614C20.1105 12.9094 19.825 12.624 19.473 12.624C19.121 12.624 18.8356 12.9094 18.8356 13.2614V30.7251H13.164V10.5897C13.164 10.2377 12.8786 9.95225 12.5265 9.95225C12.1745 9.95225 11.8891 10.2377 11.8891 10.5897V30.7251H6.81861V8.48862H25.181V30.7251ZM26.784 7.21369H5.21555V3.87981H26.784V7.21369Z" fill="#8A8A8A"/>
<path d="M19.4731 9.95224C19.1211 9.95224 18.8357 10.2377 18.8357 10.5897V11.0572C18.8357 11.4092 19.1211 11.6947 19.4731 11.6947C19.8251 11.6947 20.1106 11.4092 20.1106 11.0572V10.5897C20.1106 10.2377 19.8251 9.95224 19.4731 9.95224Z" fill="#8A8A8A"/>
</svg>
