<svg width="50" height="50" viewBox="0 0 50 50" fill="none" xmlns="http://www.w3.org/2000/svg">
<path d="M42.9019 34.0661L42.8316 33.995C42.4511 33.6127 41.8326 33.6115 41.4504 33.9919C41.0682 34.3724 41.0668 34.9909 41.4474 35.3731L41.5056 35.4319C41.697 35.6275 41.9503 35.7256 42.2038 35.7256C42.45 35.7256 42.6966 35.633 42.8865 35.4472C43.2721 35.0701 43.279 34.4518 42.9019 34.0661Z" fill="white"/>
<path d="M49.0234 48.0469H46.2891V42.3715C46.2891 40.5156 45.8472 38.662 45.0109 37.0108C44.7673 36.5296 44.1794 36.3372 43.6986 36.5809C43.2174 36.8245 43.025 37.4121 43.2687 37.8932C43.9669 39.2721 44.336 40.8207 44.336 42.3714V48.0469H5.66406V42.3652C5.66406 37.7406 8.94268 33.6647 13.4599 32.6738L16.7992 31.9412C17.4349 31.8018 18.0273 31.5555 18.5604 31.2249C20.3494 32.7741 22.6097 33.6195 24.9999 33.6195C27.3815 33.6195 29.6341 32.7802 31.42 31.2417C31.9458 31.563 32.5284 31.8029 33.1528 31.9395L36.5333 32.6785C37.3666 32.8606 38.1721 33.1485 38.9273 33.5342C39.0695 33.6067 39.2212 33.6412 39.3706 33.6412C39.7259 33.6412 40.0685 33.4467 40.2411 33.1085C40.4864 32.6281 40.2958 32.04 39.8154 31.7947C38.9112 31.333 37.9473 30.9885 36.9505 30.7705L33.5701 30.0314C31.8622 29.658 30.6226 28.1181 30.6226 26.3698V25.9932C32.8152 24.7445 34.4053 22.5556 34.8406 19.9789H35.2986C36.8354 19.9789 38.0858 18.7285 38.0858 17.1916V15.3442C38.0858 13.8074 36.8354 12.557 35.2986 12.557H34.9609V8.56123C34.9609 3.84053 31.1204 0 26.3997 0H23.6003C18.8796 0 15.0391 3.84053 15.0391 8.56123V12.5569H14.7013C13.1645 12.5569 11.9141 13.8073 11.9141 15.3441V17.1915C11.9141 18.7284 13.1645 19.9788 14.7013 19.9788H15.1593C15.5912 22.5353 17.1598 24.7103 19.3258 25.9637V26.3725C19.3258 28.1195 18.0872 29.6592 16.3809 30.0335L13.0415 30.7661C10.4064 31.3441 8.02402 32.8201 6.3332 34.9222C4.64219 37.0242 3.71094 39.6675 3.71094 42.3652V48.0469H0.976562C0.437305 48.0469 0 48.4842 0 49.0234C0 49.5627 0.437305 50 0.976562 50H4.6875H45.3125H49.0234C49.5627 50 50 49.5627 50 49.0234C50 48.4842 49.5627 48.0469 49.0234 48.0469ZM34.9609 14.5101H35.2987C35.7587 14.5101 36.1328 14.8842 36.1328 15.3441V17.1915C36.1328 17.6515 35.7587 18.0257 35.2987 18.0257H34.9609V14.5101ZM15.0391 18.0257H14.7013C14.2413 18.0257 13.8672 17.6515 13.8672 17.1915V15.3441C13.8672 14.8842 14.2413 14.5101 14.7013 14.5101H15.0391V18.0257ZM25 31.6666C23.1704 31.6666 21.4362 31.048 20.0347 29.9111C20.7341 29.0304 21.177 27.9462 21.2625 26.7851C22.0059 26.9962 22.7901 27.1094 23.6003 27.1094H26.3997C27.1916 27.1094 27.9586 27.0008 28.687 26.7986C28.7765 27.9654 29.2261 29.054 29.9343 29.9354C28.5381 31.0563 26.8163 31.6666 25 31.6666ZM16.9922 8.56123C16.9922 4.91748 19.9565 1.95312 23.6003 1.95312H26.3997C29.703 1.95312 32.448 4.38965 32.932 7.55986C32.8556 7.60264 32.7833 7.65576 32.7183 7.7207C29.5996 10.8395 25.4531 12.5568 21.0428 12.5568H16.9922V8.56123ZM16.9922 18.5482V14.5101H21.0428C23.4799 14.5101 25.8573 14.0371 28.1089 13.1045C29.9012 12.3621 31.5431 11.3565 33.0078 10.1084V13.5335V18.5482C33.0078 22.192 30.0435 25.1562 26.3997 25.1562H23.6003C19.9565 25.1562 16.9922 22.1919 16.9922 18.5482Z" fill="white"/>
<path d="M12.2157 36.2971C11.881 35.8744 11.2669 35.8027 10.8438 36.1374C8.92808 37.6535 7.82935 39.9235 7.82935 42.3652C7.82935 42.9045 8.26665 43.3418 8.80591 43.3418C9.34517 43.3418 9.78247 42.9045 9.78247 42.3652C9.78247 40.524 10.6111 38.8123 12.0559 37.6689C12.4788 37.3342 12.5503 36.72 12.2157 36.2971Z" fill="white"/>
<path d="M15.2302 35.3538C15.114 34.8272 14.593 34.4948 14.066 34.6108L14.0208 34.6208C13.4943 34.7378 13.1623 35.2595 13.2793 35.786C13.3804 36.2411 13.784 36.5509 14.2317 36.5509C14.3019 36.5509 14.3731 36.5433 14.4445 36.5275L14.4872 36.518C15.0139 36.4018 15.3465 35.8806 15.2302 35.3538Z" fill="white"/>
</svg>
